<svg version="1.1" viewBox="0.0 0.0 1805.6141732283465 226.77165354330708" fill="none" stroke="none" stroke-linecap="square" stroke-miterlimit="10" xmlns:xlink="http://www.w3.org/1999/xlink" xmlns="http://www.w3.org/2000/svg"><clipPath id="p.0"><path d="m0 0l1805.6141 0l0 226.77165l-1805.6141 0l0 -226.77165z" clip-rule="nonzero"/></clipPath><g clip-path="url(#p.0)"><path fill="#000000" fill-opacity="0.0" d="m0 0l1805.6141 0l0 226.77165l-1805.6141 0z" fill-rule="evenodd"/><path fill="#ffffff" d="m453.5433 -0.2992126l226.77164 0l0 226.77165l-226.77164 0z" fill-rule="evenodd"/><path fill="#000000" fill-opacity="0.0" d="m879.82153 -0.2992126l955.5276 0l0 226.77165l-955.5276 0z" fill-rule="evenodd"/><path fill="#ffffff" d="m994.02466 53.772655l17.34375 0l0 121.328125l-17.34375 0l0 -121.328125zm-69.671875 121.328125l-17.328125 0l0 -121.328125l17.328125 0l0 121.328125zm71.234375 -54.078125l-72.96875 0l0 -15.078125l72.96875 0l0 15.078125zm106.77368 54.078125l0 -19.40625l-0.859375 -3.640625l0 -33.109375q0 -10.578125 -6.15625 -16.375q-6.15625 -5.8125 -18.46875 -5.8125q-8.140625 0 -15.9375 2.6875q-7.796875 2.6875 -13.171875 7.1875l-6.9375 -12.46875q7.109375 -5.734375 17.078125 -8.765625q9.96875 -3.03125 20.875 -3.03125q18.90625 0 29.125 9.1875q10.234375 9.1875 10.234375 28.078125l0 55.46875l-15.78125 0zm-30.15625 1.046875q-10.234375 0 -17.953125 -3.46875q-7.703125 -3.46875 -11.859375 -9.625q-4.15625 -6.15625 -4.15625 -13.953125q0 -7.453125 3.546875 -13.515625q3.546875 -6.0625 11.609375 -9.703125q8.0625 -3.640625 21.75 -3.640625l29.125 0l0 11.953125l-28.421875 0q-12.484375 0 -16.828125 4.171875q-4.328125 4.15625 -4.328125 10.046875q0 6.75 5.375 10.828125q5.375 4.078125 14.90625 4.078125q9.359375 0 16.375 -4.15625q7.03125 -4.171875 10.15625 -12.140625l3.28125 11.4375q-3.28125 8.140625 -11.609375 12.921875q-8.3125 4.765625 -20.96875 4.765625zm191.69714 -93.78125q11.09375 0 19.578125 4.34375q8.5 4.328125 13.265625 13.171875q4.765625 8.828125 4.765625 22.359375l0 52.859375l-16.640625 0l0 -50.953125q0 -13.359375 -6.234375 -20.109375q-6.234375 -6.765625 -17.5 -6.765625q-8.328125 0 -14.578125 3.46875q-6.234375 3.46875 -9.609375 10.234375q-3.375 6.75 -3.375 16.8125l0 47.3125l-16.640625 0l0 -50.953125q0 -13.359375 -6.15625 -20.109375q-6.15625 -6.765625 -17.59375 -6.765625q-8.140625 0 -14.390625 3.46875q-6.234375 3.46875 -9.703125 10.234375q-3.46875 6.75 -3.46875 16.8125l0 47.3125l-16.640625 0l0 -91.859375l15.953125 0l0 24.4375l-2.59375 -6.25q4.328125 -9.0 13.34375 -14.03125q9.015625 -5.03125 20.96875 -5.03125q13.171875 0 22.703125 6.5q9.53125 6.5 12.484375 19.671875l-6.765625 -2.765625q4.171875 -10.578125 14.5625 -16.984375q10.40625 -6.421875 24.265625 -6.421875zm183.20789 0q11.09375 0 19.578125 4.34375q8.5 4.328125 13.265625 13.171875q4.765625 8.828125 4.765625 22.359375l0 52.859375l-16.640625 0l0 -50.953125q0 -13.359375 -6.234375 -20.109375q-6.234375 -6.765625 -17.5 -6.765625q-8.328125 0 -14.578125 3.46875q-6.234375 3.46875 -9.609375 10.234375q-3.375 6.75 -3.375 16.8125l0 47.3125l-16.640625 0l0 -50.953125q0 -13.359375 -6.15625 -20.109375q-6.15625 -6.765625 -17.59375 -6.765625q-8.140625 0 -14.390625 3.46875q-6.234375 3.46875 -9.703125 10.234375q-3.46875 6.75 -3.46875 16.8125l0 47.3125l-16.640625 0l0 -91.859375l15.953125 0l0 24.4375l-2.59375 -6.25q4.328125 -9.0 13.34375 -14.03125q9.015625 -5.03125 20.96875 -5.03125q13.171875 0 22.703125 6.5q9.53125 6.5 12.484375 19.671875l-6.765625 -2.765625q4.171875 -10.578125 14.5625 -16.984375q10.40625 -6.421875 24.265625 -6.421875zm109.19226 93.78125q-14.71875 0 -25.90625 -6.0625q-11.171875 -6.078125 -17.328125 -16.640625q-6.15625 -10.578125 -6.15625 -24.28125q0 -13.6875 5.96875 -24.25q5.984375 -10.578125 16.46875 -16.5625q10.5 -5.984375 23.671875 -5.984375q13.34375 0 23.5625 5.90625q10.234375 5.890625 16.03125 16.546875q5.8125 10.65625 5.8125 24.875q0 1.03125 -0.09375 2.421875q-0.078125 1.390625 -0.25 2.59375l-78.171875 0l0 -11.953125l69.5 0l-6.75 4.15625q0.171875 -8.84375 -3.640625 -15.765625q-3.8125 -6.9375 -10.5 -10.828125q-6.671875 -3.90625 -15.5 -3.90625q-8.671875 0 -15.4375 3.90625q-6.75 3.890625 -10.5625 10.90625q-3.8125 7.015625 -3.8125 16.03125l0 2.78125q0 9.1875 4.234375 16.375q4.25 7.1875 11.875 11.1875q7.625 3.984375 17.515625 3.984375q8.140625 0 14.8125 -2.765625q6.671875 -2.78125 11.703125 -8.328125l9.1875 10.75q-6.234375 7.265625 -15.515625 11.09375q-9.265625 3.8125 -20.71875 3.8125zm65.17053 -1.046875l0 -91.859375l15.953125 0l0 24.953125l-1.5625 -6.234375q3.8125 -9.53125 12.828125 -14.5625q9.015625 -5.03125 22.1875 -5.03125l0 16.125q-1.046875 -0.171875 -2.0 -0.171875q-0.953125 0 -1.8125 0q-13.34375 0 -21.15625 7.96875q-7.796875 7.96875 -7.796875 23.046875l0 45.765625l-16.640625 0zm69.8512 0l0 -91.859375l16.640625 0l0 91.859375l-16.640625 0zm8.328125 -109.546875q-4.859375 0 -8.0625 -3.1093788q-3.203125 -3.125 -3.203125 -7.640625q0 -4.671875 3.203125 -7.78125q3.203125 -3.125 8.0625 -3.125q4.859375 0 8.0625 3.03125q3.203125 3.03125 3.203125 7.53125q0 4.6875 -3.125 7.890625q-3.109375 3.2031288 -8.140625 3.2031288zm40.030518 109.546875l0 -128.60938l16.640625 0l0 128.60938l-16.640625 0zm48.35852 0l0 -128.60938l16.640625 0l0 128.60938l-16.640625 0z" fill-rule="nonzero"/><path fill="#ffffff" d="m0 -0.2992126l226.77165 0l0 226.77165l-226.77165 0z" fill-rule="evenodd"/></g></svg>